PathFileType	4	(X/Y/Z)	pose_F01_0-96.trc
DataRate	CameraRate	NumFrames	NumMarkers	Units	OrigDataRate	OrigDataStartFrame	OrigNumFrames
30	30	9	21	m	30	24	96
Frame#	Time	CHip			RHip			RKnee			RAnkle			RBigToe			RSmallToe			RHeel			LHip			LKnee			LAnkle			LBigToe			LSmallToe			LHeel			Neck			Nose			RShoulder			RElbow			RWrist			LShoulder			LElbow			LWrist			
		X1	Y1	Z1	X2	Y2	Z2	X3	Y3	Z3	X4	Y4	Z4	X5	Y5	Z5	X6	Y6	Z6	X7	Y7	Z7	X8	Y8	Z8	X9	Y9	Z9	X10	Y10	Z10	X11	Y11	Z11	X12	Y12	Z12	X13	Y13	Z13	X14	Y14	Z14	X15	Y15	Z15	X16	Y16	Z16	X17	Y17	Z17	X18	Y18	Z18	X19	Y19	Z19	X20	Y20	Z20	X21	Y21	Z21	
24	0.8	-0.2404699643831983	1.8818174780737893	-0.5591448598617332	-0.24908673898529807	1.8795205613113146	-0.4976152842193053	-0.2653365164038002	1.7241124903792313	-0.46902601145774897	-0.29275629158682925	1.556563569451173	-0.4336830566168926	-0.24267631025563127	1.5227508975047683	-0.4285460692708271	-0.2558602882635438	1.526681416934832	-0.3991769003011646	-0.34858848952811816	1.5533060781926975	-0.4008680551061525	-0.22650099799721896	1.8842999586135127	-0.6251714809655627	-0.24434224303054733	1.726461455071199	-0.6206627064148577													-0.2444297803723837	2.066156740658139	-0.5871420788103965	-0.21045834468756683	2.1360107816924954	-0.5754979242819586	-0.26083738226202374	2.063798371793915	-0.49290036660442765	-0.226107740855616	2.00727269975205	-0.411887150785177	-1.5515494918583617	1.9699253165508999	1.292690173615465	-0.2307062251487375	2.067786085825167	-0.6711143580264117	-0.23181337595533502	1.9749834366879426	-0.6915116633617885	-0.20907419878568265	1.8876132462903192	-0.6849566488218983
25	0.8333333333333334	-0.24017094042881926	1.8850506163363638	-0.5597145584766645	-0.24691484250441348	1.8833097078155756	-0.5002982475351749	-0.2645036389938754	1.7275942958039747	-0.4680086615925417	-0.29275629158682925	1.556563569451173	-0.4336830566168926	-0.24267631025563127	1.5227508975047683	-0.4285460692708271	-0.25621448082135945	1.527398330477591	-0.39774975048246164	-0.34858848952811816	1.5533060781926975	-0.4008680551061525	-0.22510444908219898	1.8873423441758808	-0.6225867850992607	-0.24139940020363682	1.730552713500197	-0.6200273574698204													-0.24419369873012972	2.069458551668115	-0.5868028755932256	-0.21035897709549778	2.13987729990247	-0.5766055662500296	-0.2578869799902611	2.06663013736239	-0.5005471585444098	-0.22163783617315258	2.0192441945719577	-0.4178136225072896	-0.8440379855295379	2.010016773492606	0.44447005312586496	-0.23466995757785797	2.0719026849383937	-0.666207013262373	-0.23481612684509182	1.9778284856244537	-0.6926966545089587	-0.20422676056326045	1.899289774202024	-0.6908836489443424
26	0.8666666666666667	-0.24206653351448892	1.88579357269473	-0.5576271929407454	-0.24869380544254832	1.8833930711436622	-0.49834294609568097	-0.26653945519202876	1.7286032048148146	-0.4659337059169028	-0.29275629158682925	1.556563569451173	-0.4336830566168926	-0.24267631025563127	1.5227508975047683	-0.4285460692708271	-0.2565686733791751	1.5281152440203503	-0.39632260066375874	-0.34858848952811816	1.5533060781926975	-0.4008680551061525	-0.22926934631419335	1.887468486059335	-0.6181396804828393	-0.238817687287794	1.7304818621052251	-0.6226816231277704													-0.24316297978602835	2.0707791150646893	-0.5837328026831021	-0.21114356675838256	2.143628093414146	-0.5797133722598796	-0.25668596168507274	2.0687371837911037	-0.4972900383110864	-0.2136584471350204	2.0253959492697557	-0.41824624339038635	-0.13652647920071434	2.050108230434313	-0.40375006736373514	-0.23259856261774356	2.0718460579165403	-0.6684069816761958	-0.23356351537399067	1.9807909607249727	-0.698159981603203	-0.1937797152951739	1.9059861316087512	-0.6940554264957796
27	0.9	-0.24242155296269544	1.8865458393821106	-0.5575887765788571	-0.24903303596590262	1.8840866288954716	-0.4983244893413495	-0.2672732597248536	1.7345185191569459	-0.4658441154666614	-0.29275629158682925	1.556563569451173	-0.4336830566168926	-0.24279107176673925	1.524419599008186	-0.42882122938592654	-0.2569228659369907	1.5288321575631096	-0.3948954508450558	-0.34858848952811816	1.5533060781926975	-0.4008680551061525	-0.2337422467875313	1.888198809391773	-0.6137467185329416	-0.23997747695514277	1.7326942945187778	-0.6257160183124072													-0.24921393230589722	2.0716602730074394	-0.5770993615957762	-0.21198499151763373	2.1460181453513263	-0.5822412994534791	-0.2585049573978392	2.06962930194758	-0.4950706607839197	-0.21155275209276558	2.0289267406634437	-0.42092656948611007	-0.12953034626636986	2.062001053331157	-0.4173432896423229	-0.2388257601774512	2.0730241152573066	-0.6617413525943903	-0.2358419277265223	1.9840412188348324	-0.6965767742663918	-0.1934291817259074	1.9141081630130188	-0.695080921867625
28	0.9333333333333333	-0.2423841795455799	1.8861246414742074	-0.5573385948662155	-0.24894710247770555	1.883324042242591	-0.4981831347034871	-0.26684597303613855	1.7326202316256003	-0.46610132518886993	-0.29275629158682925	1.556563569451173	-0.4336830566168926	-0.24290583327784723	1.5260883005116035	-0.42909638950102597	-0.2552770046011796	1.5265398256244225	-0.396232849482338	-0.34858848952811816	1.5533060781926975	-0.4008680551061525	-0.23575239915861562	1.8888031642497103	-0.6112289231813186	-0.23893438885538912	1.734413309535293	-0.6229390914341688													-0.25220784303051547	2.071768054031996	-0.577883854610096	-0.2129827195152153	2.1461305260627337	-0.5852211235698832	-0.25952961305692784	2.069754876438073	-0.4981721352840702	-0.21231892179950465	2.03404544351327	-0.42504615701212894	-0.1263575607629916	2.072848239989979	-0.42605102081779506	-0.23905502558100397	2.0718872832463693	-0.6617867329682666	-0.23741389153293416	1.9858918488111752	-0.7027588753045995	-0.19217241997884102	1.9240855916070265	-0.6929433188277412
29	0.9666666666666667	-0.24549052934204185	1.8846012169811355	-0.5582672641917031	-0.25117180971463754	1.8814399184672252	-0.495916251070554	-0.27017608597391013	1.7351091812874675	-0.46716476414560454	-0.29275629158682925	1.556563569451173	-0.4336830566168926	-0.2426129402076289	1.5248844707951288	-0.429055767262094	-0.2536311432653684	1.5242474936857355	-0.3975702481196202	-0.34858848952811816	1.5533060781926975	-0.4008680551061525	-0.2368719868494271	1.8874431652588972	-0.6142140945881296	-0.23982838979189275	1.734228373894922	-0.6261965769065185													-0.25221372056612446	2.0705152693163327	-0.5773984235907877	-0.21490365664972974	2.1458894564468527	-0.5823952633512065	-0.2595551927578857	2.068261229505042	-0.49754180442824475	-0.21136252860358426	2.0340627822074366	-0.42198189664219	-0.1282275967980414	2.0777069973979976	-0.4249383575872843	-0.2389561602474714	2.0716877090513606	-0.6613189077729281	-0.23767655941010238	1.9844099715125174	-0.7028237928087303	-0.19141010039972334	1.9300874963125407	-0.691007132079523
30	1.0	-0.24626556461655094	1.8862602853981958	-0.5617031727910878	-0.2558878404322232	1.8835355555686673	-0.49501539862080973	-0.2716967012293432	1.731363482358068	-0.4650169507731203	-0.29275629158682925	1.556563569451173	-0.4336830566168926	-0.24259230463493606	1.5252077545790401	-0.42879408849223277	-0.25198528192955727	1.5219551617470484	-0.39890764675690243	-0.34858848952811816	1.5533060781926975	-0.4008680551061525	-0.23773505597356476	1.8886390097645036	-0.6174814454784828	-0.24312398428217008	1.7354672687991606	-0.626966342108117													-0.25621694282984586	2.070574821851136	-0.5732662049141765	-0.21587515008562025	2.14465044169145	-0.5846750918022632	-0.26159155393241973	2.068103980569878	-0.4954227802128306	-0.2074427529230981	2.038207626727323	-0.4272835499685523	-0.12793406614982117	2.090564217696132	-0.42748384387721083	-0.24219376888941527	2.0690213610027777	-0.6623468673580197	-0.24153719161194867	1.9842819633449016	-0.7066854952715119	-1.3234646623687385	1.860913529357496	0.482936527850257
31	1.0333333333333334	-0.2510966172457255	1.8849544092951316	-0.5606795696729017	-0.2636338326688223	1.8842591230447567	-0.49473335327471823	-0.272675221376286	1.7293971063156688	-0.468373126460294	-0.29275629158682925	1.556563569451173	-0.4336830566168926	-0.2425716690622432	1.5255310383629515	-0.4285324097223715	-0.2521084255528772	1.5224427247289227	-0.3989015858466199	-0.34858848952811816	1.5533060781926975	-0.4008680551061525	-0.24332709859825877	1.8894891902463196	-0.6278628434544402	-0.24594528769975896	1.735336137218047	-0.6368779483191546													-0.25721633891793827	2.068323237333798	-0.575145952009663	-0.21892035232796664	2.14213567846439	-0.585128115851695	-0.26642739955247113	2.0662127807902473	-0.49302736931471514	-0.2092887713543081	2.041742053357865	-0.42546385683774973	-0.13535082761294928	2.1003686324467554	-0.4293272528745539	-0.24521563527820942	2.068612082523744	-0.6625008757628491	-0.25515834444258295	1.9859101420508245	-0.6962753155711893	-0.19023548529413387	1.9593125265617894	-0.700889748298262
32	1.0666666666666667	-0.25749373641096956	1.8853315195520641	-0.5626562447760183	-0.267970089069467	1.8846589885513454	-0.499192346824687	-0.2749664367026912	1.7310323168050181	-0.47492699027658286	-0.29275629158682925	1.556563569451173	-0.4336830566168926	-0.24255103348955037	1.5258543221468626	-0.4282707309525103	-0.25223156917619716	1.5229302877107973	-0.39889552493633734	-0.34858848952811816	1.5533060781926975	-0.4008680551061525	-0.24752907086284406	1.8910903922140827	-0.6323848690974007	-0.25248367467804905	1.7345804808538223	-0.638526016685693													-0.2611765432177655	2.066034547214818	-0.5788477436511267	-0.22617455639354694	2.139067134874247	-0.5804725428098011	-0.2725031109638795	2.0640745645492404	-0.4946230824865096	-0.2113071328104395	2.0434525271058646	-0.4324745521150316	-0.14462996497913908	2.111053192573511	-0.4298444503792994	-0.249440481303791	2.063380702673435	-0.6664777607395401	-0.2552239772596454	1.98228833309874	-0.7041583631998345	-0.18939721365000298	1.9750361067599986	-0.7418619130234912
